<svg xmlns="http://www.w3.org/2000/svg" xmlns:xlink="http://www.w3.org/1999/xlink" width="402.024" height="309.366" viewBox="0 0 402.024 309.366">
  <defs>
    <clipPath id="clip-path">
      <rect id="Rectangle_3551" data-name="Rectangle 3551" width="68.47" height="39.532"/>
    </clipPath>
    <clipPath id="clip-path-2">
      <rect id="Rectangle_3584" data-name="Rectangle 3584" width="60.733" height="69.968" fill="none"/>
    </clipPath>
    <clipPath id="clip-path-4">
      <rect id="Rectangle_4829" data-name="Rectangle 4829" width="138.18" height="137.267" fill="none"/>
    </clipPath>
  </defs>
  <g id="Group_14697" data-name="Group 14697" transform="translate(-891.743 -188.386)">
    <g id="Group_14696" data-name="Group 14696">
      <g id="Group_14694" data-name="Group 14694" transform="translate(1023 188.269)">
        <g id="Group_14695" data-name="Group 14695">
          <path id="Path_20396" data-name="Path 20396" d="M4.283,172.871,109.89,233.847a22.1,22.1,0,0,0,22.131,0L237.64,172.871a7.373,7.373,0,0,0,0-12.769l-13.8-7.961-91.822,53.012a22.11,22.11,0,0,1-22.131,0L18.08,152.141,4.283,160.1A7.373,7.373,0,0,0,4.283,172.871Z" transform="translate(0.117 29.759)" opacity="0.2"/>
          <path id="Path_20397" data-name="Path 20397" d="M34.2,92.51v13.415l11.609-6.707Z" transform="translate(155.458 18.095)" fill="none" stroke="#fff" stroke-linecap="round" stroke-linejoin="round" stroke-width="1.2"/>
          <path id="Path_20398" data-name="Path 20398" d="M158.64,99.217l11.609,6.707V92.51Z" transform="translate(-117.762 18.095)" fill="none" stroke="#fff" stroke-linecap="round" stroke-linejoin="round" stroke-width="1.2"/>
          <path id="Path_20399" data-name="Path 20399" d="M4.282,94.1,72.36,133.407l37.53,21.664a22.168,22.168,0,0,0,22.131,0l37.542-21.664L237.64,94.1a7.327,7.327,0,0,0,3.682-6.384V150.4a7.416,7.416,0,0,1-.921,3.587,7.29,7.29,0,0,1-2.762,2.8l-13.8,7.963L132.02,217.756a22.11,22.11,0,0,1-22.131,0L18.08,164.743l-13.8-7.963A7.288,7.288,0,0,1,.6,150.4V87.711A7.327,7.327,0,0,0,4.282,94.1Z" transform="translate(0.117 17.156)" fill="none" stroke="#fff" stroke-linecap="round" stroke-linejoin="round" stroke-width="1.2"/>
          <path id="Path_20401" data-name="Path 20401" d="M.6,93.3a7.327,7.327,0,0,0,3.682,6.385L72.36,139l37.53,21.664a22.168,22.168,0,0,0,22.131,0L169.562,139,237.64,99.685a7.386,7.386,0,0,0,0-12.781l-48.1-27.774V74.972l23.709,13.69a5.831,5.831,0,0,1,0,10.091l-12.1,6.994-11.609,6.707L179.414,118.3l-2.391,1.375-9.589,5.536-2.3,1.327-7.831,4.519-.741.43-11.239,6.492-2.475,1.423-13.14,7.592c-.383.215-.765.418-1.16.61q-.359.179-.717.323c-.215.1-.442.191-.67.275-.383.143-.765.275-1.148.383s-.741.215-1.112.3c-.275.072-.538.12-.8.167-.3.06-.586.1-.885.143a17.6,17.6,0,0,1-2.248.143c-.371,0-.753-.012-1.124-.036-.3-.024-.6-.048-.9-.084s-.622-.072-.921-.132c-.036,0-.06-.012-.084-.012-.251-.048-.49-.1-.729-.155-.012.012-.012.012-.024,0-.167-.036-.335-.072-.5-.12a11.3,11.3,0,0,1-1.375-.407c-.167-.048-.335-.108-.49-.167a18.211,18.211,0,0,1-1.722-.741c-.311-.155-.61-.323-.909-.49L85.356,131.488h-.012l-7.186-4.149-13.271-7.664-12.518-7.221L40.76,105.746l-12.1-6.994a5.831,5.831,0,0,1,0-10.091l23.709-13.69V59.142L4.282,86.9A7.332,7.332,0,0,0,.6,93.3Z" transform="translate(0.117 11.566)" fill="none" stroke="#fff" stroke-linecap="round" stroke-linejoin="round" stroke-width="1.2"/>
          <path id="Path_20402" data-name="Path 20402" d="M34.2,92.51v13.415l11.609-6.707Z" transform="translate(155.458 18.095)" fill="none" stroke="#fff" stroke-linecap="round" stroke-linejoin="round" stroke-width="1.2"/>
          <path id="Path_20403" data-name="Path 20403" d="M52.23,87.62v.108h.179Z" transform="translate(127.301 17.138)" fill="none" stroke="#fff" stroke-linecap="round" stroke-linejoin="round" stroke-width="1.2"/>
          <path id="Path_20404" data-name="Path 20404" d="M121.66,43.553l9.983,5.775V37.79Z" transform="translate(-34.943 7.392)" fill="none" stroke="#fff" stroke-linecap="round" stroke-linejoin="round" stroke-width="1.2"/>
          <path id="Path_20405" data-name="Path 20405" d="M158.64,99.217l11.609,6.707V92.51Z" transform="translate(-117.762 18.095)" fill="none" stroke="#fff" stroke-linecap="round" stroke-linejoin="round" stroke-width="1.2"/>
          <path id="Path_20406" data-name="Path 20406" d="M21.647,72.38V96.447l11.609,6.707,12.1-6.994a5.831,5.831,0,0,0,0-10.091Z" transform="translate(168.011 14.157)" fill="none" stroke="#fff" stroke-linecap="round" stroke-linejoin="round" stroke-width="1.2"/>
          <path id="Path_20407" data-name="Path 20407" d="M34.2,92.51v13.415l11.609-6.707Z" transform="translate(155.458 18.095)" fill="none" stroke="#fff" stroke-linecap="round" stroke-linejoin="round" stroke-width="1.2"/>
          <path id="Path_20408" data-name="Path 20408" d="M52.23,87.62v.108h.179Z" transform="translate(127.301 17.138)" fill="none" stroke="#fff" stroke-linecap="round" stroke-linejoin="round" stroke-width="1.2"/>
          <path id="Path_20409" data-name="Path 20409" d="M161.549,96.16l12.1,6.994,11.609-6.707V72.38L161.549,86.071a5.83,5.83,0,0,0,0,10.09Z" transform="translate(-132.771 14.157)" fill="none" stroke="#fff" stroke-linecap="round" stroke-linejoin="round" stroke-width="1.2"/>
          <path id="Path_20410" data-name="Path 20410" d="M158.64,99.217l11.609,6.707V92.51Z" transform="translate(-117.762 18.095)" fill="none" stroke="#fff" stroke-linecap="round" stroke-linejoin="round" stroke-width="1.2"/>
          <path id="Path_20411" data-name="Path 20411" d="M34.2,92.51v13.415l11.609-6.707Z" transform="translate(155.458 18.095)" fill="none" stroke="#fff" stroke-linecap="round" stroke-linejoin="round" stroke-width="1.2"/>
          <path id="Path_20412" data-name="Path 20412" d="M52.23,87.62v.108h.179Z" transform="translate(127.301 17.138)" fill="none" stroke="#fff" stroke-linecap="round" stroke-linejoin="round" stroke-width="1.2"/>
          <path id="Path_20413" data-name="Path 20413" d="M158.64,99.217l11.609,6.707V92.51Z" transform="translate(-117.762 18.095)" fill="none" stroke="#fff" stroke-linecap="round" stroke-linejoin="round" stroke-width="1.2"/>
          <path id="Path_20414" data-name="Path 20414" d="M52.38,10.343v6.589l43.137,24.9c3.1,1.78,5.607,6.588,5.607,10.711v83.166l9.589-5.534L113.1,128.8V45.41c0-4.124-2.5-8.918-5.6-10.711L64.958,10.14l-6.97-4.028a3.658,3.658,0,0,0-3.467-.407l-.43.25-.012.013C53.026,6.721,52.38,8.24,52.38,10.343Z" transform="translate(66.427 1.063)" fill="none" stroke="#fff" stroke-linecap="round" stroke-linejoin="round" stroke-width="1.2"/>
          <path id="Path_20415" data-name="Path 20415" d="M52.23,87.62v.108h.179Z" transform="translate(127.301 17.138)" fill="none" stroke="#fff" stroke-linecap="round" stroke-linejoin="round" stroke-width="1.2"/>
          <path id="Path_20416" data-name="Path 20416" d="M43.91,6.65a3.658,3.658,0,0,1,3.467.407l6.97,4.029L96.9,35.643c3.1,1.793,5.6,6.588,5.6,10.713v58.285l.179.108h-.179v25l10.127-5.846V40.509c0-4.125-2.511-8.919-5.607-10.713L57.492,1.21a5.067,5.067,0,0,0-.777-.371A3.331,3.331,0,0,0,55.436.6a3.889,3.889,0,0,0-1.913.514Z" transform="translate(77.037 0.117)" fill="none" stroke="#fff" stroke-linecap="round" stroke-linejoin="round" stroke-width="1.2"/>
          <path id="Path_20417" data-name="Path 20417" d="M70.87,21.2V53.533l3.718,2.152,17.312,10a7.947,7.947,0,0,1,1.076.753,12.4,12.4,0,0,1,3.085,4.113,13.911,13.911,0,0,1,1.423,5.177c.012.227.024.454.024.67v81.181c.3-.048.586-.084.885-.143.263-.048.526-.1.8-.167.371-.084.741-.179,1.112-.3s.765-.239,1.148-.383c.227-.084.454-.179.67-.275q.359-.143.717-.323c.395-.191.777-.395,1.16-.61l13.14-7.592,2.475-1.423,11.239-6.492.741-.43V56.271a13.944,13.944,0,0,0-4.6-10.019,6.485,6.485,0,0,0-.992-.693L92.977,26.488l-9.529-5.5-6.97-4.029a3.661,3.661,0,0,0-3.455-.395l-.442.251-.012.012C71.528,17.581,70.87,19.1,70.87,21.2Z" transform="translate(25.83 3.186)" fill="none" stroke="#fff" stroke-linecap="round" stroke-linejoin="round" stroke-width="1.2"/>
          <path id="Path_20418" data-name="Path 20418" d="M62.4,17.511a3.668,3.668,0,0,1,3.455.395l6.97,4.03,9.529,5.5L115.377,46.5a6.485,6.485,0,0,1,.992.693,13.944,13.944,0,0,1,4.6,10.019v83.166l7.831-4.519,2.3-1.327V51.371c0-4.124-2.511-8.931-5.607-10.713l-43.137-24.9L75.97,12.073a6.48,6.48,0,0,0-.777-.384,3.541,3.541,0,0,0-1.255-.238A3.957,3.957,0,0,0,72,11.977Z" transform="translate(36.452 2.24)" fill="none" stroke="#fff" stroke-linecap="round" stroke-linejoin="round" stroke-width="1.2"/>
          <path id="Path_20419" data-name="Path 20419" d="M107.84,42.913v73.673l12.518,7.221,13.271,7.664,7.186,4.149h.012l26.841,15.507c.3.167.6.335.909.49V77.98q0-.43-.036-.861c-.024-.239-.048-.478-.084-.717-.036-.263-.084-.526-.132-.789v-.024c-.06-.263-.12-.514-.191-.777-.06-.239-.132-.49-.215-.729-.1-.3-.2-.6-.323-.885a15.41,15.41,0,0,0-.909-1.9c-.143-.251-.3-.5-.454-.741-.179-.263-.359-.526-.55-.777-.1-.132-.2-.263-.311-.395a9.111,9.111,0,0,0-1.889-1.781,4.73,4.73,0,0,0-.514-.335l-10.916-6.3-6.4-3.694-13.714-7.915-2-1.148-9.529-5.5-6.97-4.029a3.668,3.668,0,0,0-3.455-.407l-.43.251-.024.012C108.5,39.29,107.84,40.809,107.84,42.913Z" transform="translate(-55.353 7.434)" fill="#b9dbde" stroke="#000a3c" stroke-linecap="round" stroke-linejoin="round" stroke-width="1.2"/>
          <path id="Path_20420" data-name="Path 20420" d="M99.38,39.22a3.672,3.672,0,0,1,3.455.408l6.97,4.029,9.529,5.5,2,1.148,13.714,7.915,6.4,3.694,10.916,6.3a4.921,4.921,0,0,1,.514.336,9.111,9.111,0,0,1,1.889,1.781c.108.132.215.263.311.395a9.24,9.24,0,0,1,.55.776c.155.24.311.491.454.742a15.413,15.413,0,0,1,.909,1.9c.12.287.227.586.323.885.084.239.155.489.215.729.072.263.132.514.191.777v.024c.048.263.1.526.132.788.036.24.06.479.084.719q.036.43.036.861v73.637a18.512,18.512,0,0,0,1.722.74c.155.061.323.12.49.167a11.52,11.52,0,0,0,1.375.408c.167.048.335.084.5.118.012.013.012.013.024,0,.239.061.478.108.729.155.024,0,.048.012.084.012.3.061.61.1.921.132s.6.061.9.084c.371.024.753.036,1.124.036a17.815,17.815,0,0,0,2.248-.142V73.092c0-.215-.012-.442-.024-.67a13.911,13.911,0,0,0-1.423-5.177,12.419,12.419,0,0,0-3.085-4.114,8.043,8.043,0,0,0-1.076-.752l-17.312-10-3.718-2.152-9.983-5.775h-.012l-12.111-6.994-6.385-3.682a4.588,4.588,0,0,0-.777-.371,3.291,3.291,0,0,0-1.267-.239,3.79,3.79,0,0,0-1.925.526Z" transform="translate(-44.741 6.488)" fill="#f2f3fa" stroke="#000a3c" stroke-linecap="round" stroke-linejoin="round" stroke-width="1.2"/>
          <line id="Line_1799" data-name="Line 1799" y2="80.183" transform="translate(71.304 54.635)" fill="none" stroke="#000a3c" stroke-linecap="round" stroke-linejoin="round" stroke-width="1.2"/>
          <path id="Path_20426" data-name="Path 20426" d="M0,80.206.108-.781l9.1,5.223,0,81.046Z" transform="translate(62.226 49.394)" fill="#80b9b6" stroke="#000a3c" stroke-linecap="round" stroke-width="1.2"/>
          <path id="Path_20424" data-name="Path 20424" d="M138.924,58.936c.014-5.112,3.635-7.169,8.079-4.6m0,0c4.449,2.569,8.04,8.789,8.026,13.9s-3.629,7.172-8.079,4.6-8.04-8.8-8.026-13.9" transform="translate(-55.969 22.411)" fill="none" stroke="#000a3c" stroke-miterlimit="10" stroke-width="1"/>
          <path id="Path_20425" data-name="Path 20425" d="M138.924,68.936c.014-5.112,3.635-7.169,8.079-4.6m0,0c4.449,2.569,8.04,8.789,8.026,13.9s-3.629,7.172-8.079,4.6-8.04-8.8-8.026-13.9" transform="translate(-55.969 24.367)" fill="none" stroke="#000a3c" stroke-miterlimit="10" stroke-width="1"/>
          <path id="Path_20427" data-name="Path 20427" d="M138.924,58.936c.014-5.112,3.635-7.169,8.079-4.6m0,0c4.449,2.569,8.04,8.789,8.026,13.9s-3.629,7.172-8.079,4.6-8.04-8.8-8.026-13.9" transform="translate(-55.969 22.411)" fill="#80b9b6" stroke="#000a3c" stroke-miterlimit="10" stroke-width="1"/>
          <path id="Path_20428" data-name="Path 20428" d="M138.924,68.936c.014-5.112,3.635-7.169,8.079-4.6m0,0c4.449,2.569,8.04,8.789,8.026,13.9s-3.629,7.172-8.079,4.6-8.04-8.8-8.026-13.9" transform="translate(-55.969 24.367)" fill="#80b9b6" stroke="#000a3c" stroke-miterlimit="10" stroke-width="1"/>
          <path id="Path_20429" data-name="Path 20429" d="M138.924,58.936c.014-5.112,3.635-7.169,8.079-4.6m0,0c4.449,2.569,8.04,8.789,8.026,13.9s-3.629,7.172-8.079,4.6-8.04-8.8-8.026-13.9" transform="translate(-55.969 22.411)" fill="none" stroke="#000a3c" stroke-miterlimit="10" stroke-width="1"/>
        </g>
      </g>
      <path id="Path_18459" data-name="Path 18459" d="M-385.121,6387.074" transform="translate(1515.486 -6048.065)" fill="none" stroke="#707070" stroke-width="1"/>
      <g id="Group_13762" data-name="Group 13762" transform="translate(1225.298 369.092)">
        <g id="Group_12672" data-name="Group 12672" transform="translate(0 43.394)" opacity="0.2" clip-path="url(#clip-path)">
          <path id="Path_13785" data-name="Path 13785" d="M0,19.765a2.089,2.089,0,0,0,1.232,1.717L28.319,37.123l2.94,1.7a6.576,6.576,0,0,0,5.95,0l2.941-1.7h0L67.237,21.482a2.091,2.091,0,0,0,1.232-1.717,2.092,2.092,0,0,0-1.232-1.717L37.21.711a6.571,6.571,0,0,0-5.948,0L1.232,18.048A2.094,2.094,0,0,0,0,19.765" transform="translate(0 0)"/>
        </g>
        <g id="Group_12857" data-name="Group 12857" transform="translate(4.056 0)">
          <path id="Path_14856" data-name="Path 14856" d="M60.361,17.856,30.468,35.111.6,17.856,30.468.6Z" transform="translate(-0.115 -0.114)" fill="#eecad4"/>
          <g id="Group_12713" data-name="Group 12713" transform="translate(0.486 0.486)">
            <g id="Group_13761" data-name="Group 13761">
              <path id="Path_14857" data-name="Path 14857" d="M.6,17.856,30.467,35.111,60.361,17.856,30.467.6Z" transform="translate(-0.6 -0.6)" fill="none" stroke="#000a3c" stroke-linecap="round" stroke-linejoin="round" stroke-width="1.2"/>
            </g>
          </g>
          <path id="Path_14858" data-name="Path 14858" d="M30.494,56.4.6,73.653V39.168L30.494,21.913Z" transform="translate(29.753 -4.171)" fill="#e096a0"/>
          <g id="Group_12715" data-name="Group 12715">
            <g id="Group_12714" data-name="Group 12714" clip-path="url(#clip-path-2)">
              <path id="Path_14859" data-name="Path 14859" d="M.6,39.168V73.653L30.494,56.4V21.913Z" transform="translate(29.753 -4.171)" fill="none" stroke="#000a3c" stroke-linecap="round" stroke-linejoin="round" stroke-width="1.2"/>
            </g>
          </g>
          <line id="Line_691" data-name="Line 691" x1="29.893" y2="17.255" transform="translate(14.97 8.835)" fill="#e096a0"/>
          <line id="Line_692" data-name="Line 692" x1="29.893" y2="17.255" transform="translate(14.97 8.835)" fill="none" stroke="#000a3c" stroke-linecap="round" stroke-linejoin="round" stroke-width="1.2"/>
          <path id="Path_14860" data-name="Path 14860" d="M67.389,39.168V73.653L37.521,56.4V21.912Z" transform="translate(-37.035 -4.171)" fill="#e096a0"/>
          <g id="Group_12717" data-name="Group 12717">
            <g id="Group_12716" data-name="Group 12716" clip-path="url(#clip-path-2)">
              <path id="Path_14861" data-name="Path 14861" d="M37.521,21.912V56.4L67.388,73.654V39.168Z" transform="translate(-37.035 -4.171)" fill="none" stroke="#000a3c" stroke-linecap="round" stroke-linejoin="round" stroke-width="1.2"/>
              <path id="Path_14862" data-name="Path 14862" d="M49.166,74.251,41.277,69.7a.517.517,0,0,1-.26-.449v-2.5a.345.345,0,0,1,.519-.3L49.426,71a.518.518,0,0,1,.259.449v2.5a.346.346,0,0,1-.519.3" transform="translate(-22.162 -12.638)" fill="#e096a0" stroke="#000a3c" stroke-width="1"/>
              <path id="Path_14863" data-name="Path 14863" d="M49.166,74.251,41.277,69.7a.517.517,0,0,1-.26-.449v-2.5a.345.345,0,0,1,.519-.3L49.426,71a.518.518,0,0,1,.259.449v2.5A.346.346,0,0,1,49.166,74.251Z" transform="translate(-22.162 -12.638)" fill="none" stroke="#000a3c" stroke-linecap="round" stroke-linejoin="round" stroke-width="1.2"/>
              <line id="Line_693" data-name="Line 693" x2="3.314" y2="1.914" transform="translate(22.598 57.368)" fill="none" stroke="#000a3c" stroke-linecap="round" stroke-linejoin="round" stroke-width="1.2"/>
              <line id="Line_694" data-name="Line 694" x2="1.113" y2="0.643" transform="translate(20.465 56.136)" fill="none" stroke="#000a3c" stroke-linecap="round" stroke-linejoin="round" stroke-width="1.2"/>
              <path id="Path_14864" data-name="Path 14864" d="M59.483,60.7,47.353,53.7a.8.8,0,0,1-.4-.691V49.157a.533.533,0,0,1,.8-.462L59.883,55.7a.8.8,0,0,1,.4.691v3.849a.532.532,0,0,1-.8.461" transform="translate(-37.566 -9.255)" fill="#e096a0"/>
              <path id="Path_14865" data-name="Path 14865" d="M59.483,60.7,47.353,53.7a.8.8,0,0,1-.4-.691V49.157a.533.533,0,0,1,.8-.462L59.883,55.7a.8.8,0,0,1,.4.691v3.849A.532.532,0,0,1,59.483,60.7Z" transform="translate(-37.566 -9.255)" fill="none" stroke="#000a3c" stroke-linecap="round" stroke-linejoin="round" stroke-width="1.2"/>
              <line id="Line_695" data-name="Line 695" x2="5.096" y2="2.943" transform="translate(15.144 44.919)" fill="none" stroke="#000a3c" stroke-linecap="round" stroke-linejoin="round" stroke-width="1.2"/>
              <line id="Line_696" data-name="Line 696" x2="1.712" y2="0.989" transform="translate(11.864 43.025)" fill="none" stroke="#000a3c" stroke-linecap="round" stroke-linejoin="round" stroke-width="1.2"/>
            </g>
          </g>
        </g>
      </g>
      <g id="Group_12753" data-name="Group 12753" transform="translate(1028.925 429.333)">
        <path id="Path_15125" data-name="Path 15125" d="M-12.653-11.117,98.766,55.118a11.69,11.69,0,0,0,11.661,0s74.63-44.726,82-49.161" transform="translate(12.653 11.117)" fill="none" stroke="#fff" stroke-width="1" stroke-dasharray="10 5"/>
      </g>
      <g id="Group_14654" data-name="Group 14654" transform="translate(891.743 300.458)" clip-path="url(#clip-path-4)">
        <path id="Path_20288" data-name="Path 20288" d="M7.065,166.416a3.719,3.719,0,0,0,1.369,2.337H8.44a6.785,6.785,0,0,0,1.018.716l80.98,46.857a12.883,12.883,0,0,0,11.675,0l37.716-21.821a6.8,6.8,0,0,0,1.025-.723,3.706,3.706,0,0,0,1.368-2.331,2.6,2.6,0,0,0,0-.648,4.292,4.292,0,0,0-2.393-3.053L58.85,140.892a12.887,12.887,0,0,0-11.676,0L9.458,162.714a4.318,4.318,0,0,0-2.393,3.054,2.639,2.639,0,0,0,0,.648" transform="translate(-7.045 -80.457)" opacity="0.2"/>
        <path id="Path_20289" data-name="Path 20289" d="M244.322,82.79v47.7l-47.87-28.771-1.232-48.041Z" transform="translate(-188.762 -30.958)" fill="#b9dbde"/>
        <path id="Path_20290" data-name="Path 20290" d="M244.322,82.79v47.7l-47.87-28.771-1.232-48.041Z" transform="translate(-188.762 -30.958)" fill="none" stroke="#000a3c" stroke-linecap="round" stroke-linejoin="round" stroke-width="1.2"/>
        <path id="Path_20291" data-name="Path 20291" d="M98.269,91.732v47.7l40.994-21.787.037-48.464Z" transform="translate(-42.71 -39.9)" fill="#fff"/>
        <path id="Path_20292" data-name="Path 20292" d="M98.269,91.732v47.7l40.994-21.787.037-48.464Z" transform="translate(-42.71 -39.9)" fill="none" stroke="#000a3c" stroke-linecap="round" stroke-linejoin="round" stroke-width="1.2"/>
        <path id="Path_20293" data-name="Path 20293" d="M98.269,193.389V202l40.994-21.787.037-9.381Z" transform="translate(-42.71 -98.534)" fill="#fff"/>
        <path id="Path_20294" data-name="Path 20294" d="M98.269,193.389V202l40.994-21.787.037-9.381Z" transform="translate(-42.71 -98.534)" fill="none" stroke="#000a3c" stroke-linecap="round" stroke-linejoin="round" stroke-width="1.2"/>
        <path id="Path_20295" data-name="Path 20295" d="M246.816,177.834c1.19-.743,5.683-1.14,7.543-1.275a27.209,27.209,0,0,0,4.5,2.808,22.578,22.578,0,0,1,3.288,2.069,12.636,12.636,0,0,0,2.612,2.021.659.659,0,0,0,.573,0c.1.09.192.179.29.267a.93.93,0,0,0,.1.079,12.773,12.773,0,0,1,1.118,4.979c-.006,2.155-.767,3.67-1.993,4.383l-5.047,2.933c.039-.023.076-.048.113-.072-1.25.8-3.019.727-4.978-.4a15.014,15.014,0,0,1-6.812-11.8,9.443,9.443,0,0,1,.718-3.077l-1.582-.161s-1.376-2.173-.449-2.751" transform="translate(-232.991 -101.836)" fill="#80b9b6"/>
        <path id="Path_20296" data-name="Path 20296" d="M246.816,177.834c1.19-.743,5.683-1.14,7.543-1.275a27.209,27.209,0,0,0,4.5,2.808,22.578,22.578,0,0,1,3.288,2.069,12.636,12.636,0,0,0,2.612,2.021.659.659,0,0,0,.573,0c.1.09.192.179.29.267a.93.93,0,0,0,.1.079,12.773,12.773,0,0,1,1.118,4.979c-.006,2.155-.767,3.67-1.993,4.383l-5.047,2.933c.039-.023.076-.048.113-.072-1.25.8-3.019.727-4.978-.4a15.014,15.014,0,0,1-6.812-11.8,9.443,9.443,0,0,1,.718-3.077l-1.582-.161S245.89,178.411,246.816,177.834Z" transform="translate(-232.991 -101.836)" fill="none" stroke="#000a3c" stroke-linecap="round" stroke-linejoin="round" stroke-width="1.2"/>
        <path id="Path_20297" data-name="Path 20297" d="M258.419,187.111a15.016,15.016,0,0,0,6.814,11.8c3.775,2.18,6.846.43,6.858-3.908a15.016,15.016,0,0,0-6.813-11.8c-3.776-2.18-6.846-.43-6.858,3.906m6.82,9.5a10.617,10.617,0,0,1-4.818-8.344c.008-3.067,2.18-4.3,4.849-2.763a10.619,10.619,0,0,1,4.817,8.344c-.008,3.068-2.18,4.3-4.849,2.763" transform="translate(-243.279 -105.128)" fill="#7eb8b6"/>
        <path id="Path_20298" data-name="Path 20298" d="M258.419,187.111a15.016,15.016,0,0,0,6.814,11.8c3.775,2.18,6.846.43,6.858-3.908a15.016,15.016,0,0,0-6.813-11.8C261.5,181.026,258.431,182.775,258.419,187.111Zm6.82,9.5" transform="translate(-243.279 -105.128)" fill="none" stroke="#000a3c" stroke-linecap="round" stroke-linejoin="round" stroke-width="1.2"/>
        <path id="Path_20299" data-name="Path 20299" d="M243.089,184.961v8.568l-25.379-15.294a16.674,16.674,0,0,0-7.433-11.349,7.658,7.658,0,0,0-3.817-1.139,4.934,4.934,0,0,0-4.656,3.109l-5.73-3.673a1.86,1.86,0,0,1-.857-1.566v-7.393Z" transform="translate(-187.53 -90.106)" fill="#b9dbde"/>
        <path id="Path_20300" data-name="Path 20300" d="M243.089,184.961v8.568l-25.379-15.294a16.674,16.674,0,0,0-7.433-11.349,7.658,7.658,0,0,0-3.817-1.139,4.934,4.934,0,0,0-4.656,3.109l-5.73-3.673a1.86,1.86,0,0,1-.857-1.566v-7.393Z" transform="translate(-187.53 -90.106)" fill="none" stroke="#000a3c" stroke-linecap="round" stroke-linejoin="round" stroke-width="1.2"/>
        <path id="Path_20301" data-name="Path 20301" d="M37.861,164.547l-9.812-25.056,37.987-22.109,9.813,25.056Z" transform="translate(50.46 -67.703)" fill="#b9dbde"/>
        <path id="Path_20302" data-name="Path 20302" d="M37.861,164.547l-9.812-25.056,37.987-22.109,9.813,25.056Z" transform="translate(50.46 -67.703)" fill="none" stroke="#163171" stroke-linecap="round" stroke-linejoin="round" stroke-width="1.2"/>
        <path id="Path_20303" data-name="Path 20303" d="M18.151,205.4a1.228,1.228,0,0,0,1.229,0L56.2,183.989a1.085,1.085,0,0,0-.044-1.863l-6.238-5.3a.451.451,0,0,0-.453,0L11.818,198.746Z" transform="translate(76.472 -101.954)" fill="#fff"/>
        <path id="Path_20304" data-name="Path 20304" d="M18.151,205.4a1.228,1.228,0,0,0,1.229,0L56.2,183.989a1.085,1.085,0,0,0-.044-1.863l-6.238-5.3a.451.451,0,0,0-.453,0L11.818,198.746Z" transform="translate(76.472 -101.954)" fill="none" stroke="#000a3c" stroke-linecap="round" stroke-linejoin="round" stroke-width="1.2"/>
        <path id="Path_20305" data-name="Path 20305" d="M11.853,214.2v8.032L49.84,200.165v-8.074Z" transform="translate(83.323 -110.794)" fill="#b9dbde"/>
        <path id="Path_20306" data-name="Path 20306" d="M11.853,214.2v8.032L49.84,200.165v-8.074Z" transform="translate(83.323 -110.794)" fill="none" stroke="#000a3c" stroke-linecap="round" stroke-linejoin="round" stroke-width="1.2"/>
        <path id="Path_20307" data-name="Path 20307" d="M128.224,252.481c-1.9-1.1-3.619-1.2-4.862-.476,0,0-4.642-.363-6.266.584a4.3,4.3,0,0,0-1.9,4.177l1.586,0a11.965,11.965,0,0,0-.463,2.56,15.014,15.014,0,0,0,6.812,11.8c1.96,1.132,3.728,1.2,4.978.4-.038.025-.074.05-.113.073l5.047-2.933c1.227-.713,1.987-2.229,1.993-4.383a15.017,15.017,0,0,0-6.813-11.8" transform="translate(-45.598 -145.085)" fill="#80b9b6"/>
        <path id="Path_20308" data-name="Path 20308" d="M128.224,252.481c-1.9-1.1-3.619-1.2-4.862-.476,0,0-4.642-.363-6.266.584a4.3,4.3,0,0,0-1.9,4.177l1.586,0a11.965,11.965,0,0,0-.463,2.56,15.014,15.014,0,0,0,6.812,11.8c1.96,1.132,3.728,1.2,4.978.4-.038.025-.074.05-.113.073l5.047-2.933c1.227-.713,1.987-2.229,1.993-4.383A15.017,15.017,0,0,0,128.224,252.481Z" transform="translate(-45.598 -145.085)" fill="none" stroke="#000a3c" stroke-linecap="round" stroke-linejoin="round" stroke-width="1.2"/>
        <path id="Path_20309" data-name="Path 20309" d="M11.818,231.03v12.127l38-22.021-.015-12.172Z" transform="translate(83.358 -120.526)" fill="#b9dbde"/>
        <path id="Path_20310" data-name="Path 20310" d="M11.818,231.03v12.127l38-22.021-.015-12.172Z" transform="translate(83.358 -120.526)" fill="none" stroke="#000a3c" stroke-linecap="round" stroke-linejoin="round" stroke-width="1.2"/>
        <path id="Path_20311" data-name="Path 20311" d="M122.386,152.615l9.895,25.128,6.772,6.491v23.4l-9.314-5.532a16.6,16.6,0,0,0-7.531-12.242,7.667,7.667,0,0,0-3.817-1.138,5.035,5.035,0,0,0-4.914,3.79l-11.865-6.979V140.135Z" transform="translate(-43.878 -80.827)" fill="#b9dbde"/>
        <path id="Path_20312" data-name="Path 20312" d="M122.386,152.615l9.895,25.128,6.772,6.491v23.4l-9.314-5.532a16.6,16.6,0,0,0-7.531-12.242,7.667,7.667,0,0,0-3.817-1.138,5.035,5.035,0,0,0-4.914,3.79l-11.865-6.979V140.135Z" transform="translate(-43.878 -80.827)" fill="none" stroke="#000a3c" stroke-linecap="round" stroke-linejoin="round" stroke-width="1.2"/>
        <path id="Path_20313" data-name="Path 20313" d="M.633,252.108l2.381-1.375,2.381,1.375,38-22.022-.015-2.864,4.749,2.925L5.395,254.858Z" transform="translate(89.781 -131.058)" fill="#fff"/>
        <path id="Path_20314" data-name="Path 20314" d="M.633,252.108l2.381-1.375,2.381,1.375,38-22.022-.015-2.864,4.749,2.925L5.395,254.858Z" transform="translate(89.781 -131.058)" fill="none" stroke="#000a3c" stroke-linecap="round" stroke-linejoin="round" stroke-width="1.2"/>
        <path id="Path_20315" data-name="Path 20315" d="M101.582,292.51h0l.012-.007Z" transform="translate(-6.407 -168.709)" fill="#e096a0"/>
        <path id="Path_20316" data-name="Path 20316" d="M101.582,292.51h0l.012-.007Z" transform="translate(-6.407 -168.709)" fill="none" stroke="#272863" stroke-linecap="round" stroke-linejoin="round" stroke-width="1.2"/>
        <path id="Path_20317" data-name="Path 20317" d="M.6,234.124l.014-.008Z" transform="translate(137.312 -135.033)" fill="#e096a0"/>
        <path id="Path_20318" data-name="Path 20318" d="M.6,234.124l.014-.008Z" transform="translate(137.312 -135.033)" fill="none" stroke="#272863" stroke-linecap="round" stroke-linejoin="round" stroke-width="1.2"/>
        <path id="Path_20319" data-name="Path 20319" d="M.646,258.837l-.012.007,42.736-24.71Z" transform="translate(94.542 -135.044)" fill="#e096a0"/>
        <path id="Path_20320" data-name="Path 20320" d="M.646,258.837l-.012.007,42.736-24.71Z" transform="translate(94.542 -135.044)" fill="none" stroke="#272863" stroke-linecap="round" stroke-linejoin="round" stroke-width="1.2"/>
        <path id="Path_20321" data-name="Path 20321" d="M1.637,246.665a3.268,3.268,0,0,0,.37-.515,3.268,3.268,0,0,1-.37.515" transform="translate(135.48 -141.974)" fill="#e096a0"/>
        <path id="Path_20322" data-name="Path 20322" d="M1.637,246.665a3.268,3.268,0,0,0,.37-.515A3.268,3.268,0,0,1,1.637,246.665Z" transform="translate(135.48 -141.974)" fill="none" stroke="#272863" stroke-linecap="round" stroke-linejoin="round" stroke-width="1.2"/>
        <path id="Path_20323" data-name="Path 20323" d="M2.855,248.013a3.2,3.2,0,0,0,.322-.281,3.2,3.2,0,0,1-.322.281" transform="translate(133.795 -142.887)" fill="#e096a0"/>
        <path id="Path_20324" data-name="Path 20324" d="M2.855,248.013a3.2,3.2,0,0,0,.322-.281A3.2,3.2,0,0,1,2.855,248.013Z" transform="translate(133.795 -142.887)" fill="none" stroke="#272863" stroke-linecap="round" stroke-linejoin="round" stroke-width="1.2"/>
        <path id="Path_20325" data-name="Path 20325" d="M.776,234.132v3.446A3.249,3.249,0,0,1,.6,238.632a3.249,3.249,0,0,0,.176-1.054Z" transform="translate(137.15 -135.033)" fill="#e096a0"/>
        <path id="Path_20326" data-name="Path 20326" d="M.776,234.132v3.446A3.249,3.249,0,0,1,.6,238.632a3.249,3.249,0,0,0,.176-1.054Z" transform="translate(137.15 -135.033)" fill="none" stroke="#272863" stroke-linecap="round" stroke-linejoin="round" stroke-width="1.2"/>
        <path id="Path_20327" data-name="Path 20327" d="M1.015,245.364a3.282,3.282,0,0,0,.263-.576,3.282,3.282,0,0,1-.263.576" transform="translate(136.472 -141.189)" fill="#e096a0"/>
        <path id="Path_20328" data-name="Path 20328" d="M1.015,245.364a3.282,3.282,0,0,0,.263-.576A3.282,3.282,0,0,1,1.015,245.364Z" transform="translate(136.472 -141.189)" fill="none" stroke="#272863" stroke-linecap="round" stroke-linejoin="round" stroke-width="1.2"/>
        <path id="Path_20329" data-name="Path 20329" d="M106.374,288.772l-4.762-2.75Z" transform="translate(-11.198 -164.972)" fill="#e096a0"/>
        <path id="Path_20330" data-name="Path 20330" d="M106.374,288.772l-4.762-2.75Z" transform="translate(-11.198 -164.972)" fill="none" stroke="#272863" stroke-linecap="round" stroke-linejoin="round" stroke-width="1.2"/>
        <path id="Path_20331" data-name="Path 20331" d="M2,263.247a2.8,2.8,0,0,1-1.4.369v-4.761l.012-.007L43.35,234.155V237.6a3.252,3.252,0,0,1-.808,2.145c-.047.053-.1.1-.146.155a3.245,3.245,0,0,1-.322.281,3.281,3.281,0,0,1-.361.24Z" transform="translate(94.576 -135.056)" fill="#b9dbde"/>
        <path id="Path_20332" data-name="Path 20332" d="M2,263.247a2.8,2.8,0,0,1-1.4.369v-4.761l.012-.007L43.35,234.155V237.6a3.252,3.252,0,0,1-.808,2.145c-.047.053-.1.1-.146.155a3.245,3.245,0,0,1-.322.281,3.281,3.281,0,0,1-.361.24Z" transform="translate(94.576 -135.056)" fill="none" stroke="#000a3c" stroke-linecap="round" stroke-linejoin="round" stroke-width="1.2"/>
        <path id="Path_20333" data-name="Path 20333" d="M.6,234.124l.014-.008v.017Z" transform="translate(137.311 -135.033)" fill="#e096a0"/>
        <path id="Path_20334" data-name="Path 20334" d="M.6,234.124l.014-.008v.017Z" transform="translate(137.311 -135.033)" fill="none" stroke="#272863" stroke-linecap="round" stroke-linejoin="round" stroke-width="1.2"/>
        <path id="Path_20335" data-name="Path 20335" d="M101.612,292.519" transform="translate(-6.437 -168.719)" fill="#e096a0"/>
        <path id="Path_20336" data-name="Path 20336" d="M101.612,292.519Z" transform="translate(-6.437 -168.719)" fill="none" stroke="#272863" stroke-linecap="round" stroke-linejoin="round" stroke-width="1.2"/>
        <path id="Path_20337" data-name="Path 20337" d="M43.338,234.143.6,258.837l42.724-24.7Z" transform="translate(94.588 -135.044)" fill="#b9dbde"/>
        <path id="Path_20338" data-name="Path 20338" d="M43.338,234.143.6,258.837l42.724-24.7Z" transform="translate(94.588 -135.044)" fill="none" stroke="#000a3c" stroke-linecap="round" stroke-linejoin="round" stroke-width="1.2"/>
        <path id="Path_20339" data-name="Path 20339" d="M106.374,288.772v4.761a2.8,2.8,0,0,1-1.395-.375l-1.967-1.136a2.8,2.8,0,0,1-1.4-2.425v-3.575Z" transform="translate(-11.198 -164.972)" fill="#7eb8b6"/>
        <path id="Path_20340" data-name="Path 20340" d="M106.374,288.772v4.761a2.8,2.8,0,0,1-1.395-.375l-1.967-1.136a2.8,2.8,0,0,1-1.4-2.425v-3.575Z" transform="translate(-11.198 -164.972)" fill="none" stroke="#000a3c" stroke-linecap="round" stroke-linejoin="round" stroke-width="1.2"/>
        <path id="Path_20341" data-name="Path 20341" d="M47.89,260.878a.568.568,0,0,0-.572.055l-9.884,5.775a1.771,1.771,0,0,0-.8,1.391l.008,2.615a.563.563,0,0,0,.235.515l.787.458a.562.562,0,0,1-.234-.515l-.008-2.615a1.772,1.772,0,0,1,.8-1.392l9.884-5.774a.567.567,0,0,1,.572-.056Z" transform="translate(74 -150.438)" fill="#fff"/>
        <path id="Path_20342" data-name="Path 20342" d="M47.89,260.878a.568.568,0,0,0-.572.055l-9.884,5.775a1.771,1.771,0,0,0-.8,1.391l.008,2.615a.563.563,0,0,0,.235.515l.787.458a.562.562,0,0,1-.234-.515l-.008-2.615a1.772,1.772,0,0,1,.8-1.392l9.884-5.774a.567.567,0,0,1,.572-.056Z" transform="translate(74 -150.438)" fill="none" stroke="#000a3c" stroke-linecap="round" stroke-linejoin="round" stroke-width="1.2"/>
        <path id="Path_20343" data-name="Path 20343" d="M36.859,267.79l9.884-5.774c.444-.256.806-.049.807.462l.008,2.615a1.77,1.77,0,0,1-.8,1.389l-9.884,5.774c-.445.257-.808.051-.809-.459l-.007-2.615a1.77,1.77,0,0,1,.8-1.392" transform="translate(75.362 -151.062)" fill="#b9dbde"/>
        <path id="Path_20344" data-name="Path 20344" d="M36.859,267.79l9.884-5.774c.444-.256.806-.049.807.462l.008,2.615a1.77,1.77,0,0,1-.8,1.389l-9.884,5.774c-.445.257-.808.051-.809-.459l-.007-2.615A1.77,1.77,0,0,1,36.859,267.79Z" transform="translate(75.362 -151.062)" fill="none" stroke="#000a3c" stroke-linecap="round" stroke-linejoin="round" stroke-width="1.2"/>
        <path id="Path_20345" data-name="Path 20345" d="M89.724,88.727l19.4,11.525c.711.4,1,.594.287.989L72.595,122.8a1.106,1.106,0,0,1-1.068,0l-20.51-12.25Z" transform="translate(6.767 -51.176)" fill="#fff" stroke="#000a3c" stroke-width="1"/>
        <path id="Path_20346" data-name="Path 20346" d="M89.724,88.727l19.4,11.525c.711.4,1,.594.287.989L72.595,122.8a1.106,1.106,0,0,1-1.068,0l-20.51-12.25Z" transform="translate(6.767 -51.176)" fill="none" stroke="#000a3c" stroke-linecap="round" stroke-linejoin="round" stroke-width="1.2"/>
        <path id="Path_20347" data-name="Path 20347" d="M132.846,159.036l.287,15.184a.78.78,0,0,0,.388.674l17.553,9.6a1.468,1.468,0,0,0,2.182-1.534l-4.7-13.888a6.67,6.67,0,0,0-2.847-4.2l-11.67-6.5a.779.779,0,0,0-1.194.66" transform="translate(-71.324 -91.279)" fill="#7eb8b6"/>
        <path id="Path_20348" data-name="Path 20348" d="M132.846,159.036l.287,15.184a.78.78,0,0,0,.388.674l17.553,9.6a1.468,1.468,0,0,0,2.182-1.534l-4.7-13.888a6.67,6.67,0,0,0-2.847-4.2l-11.67-6.5A.779.779,0,0,0,132.846,159.036Z" transform="translate(-71.324 -91.279)" fill="none" stroke="#000a3c" stroke-linecap="round" stroke-linejoin="round" stroke-width="1.2"/>
        <path id="Path_20349" data-name="Path 20349" d="M43.681,166.676l-5.612-15.191a1.653,1.653,0,0,1,.764-1.888l30.22-17.412a1.654,1.654,0,0,1,2.416.978l5.613,15.191a1.655,1.655,0,0,1-.765,1.888L46.1,167.655a1.655,1.655,0,0,1-2.416-.979" transform="translate(44.951 -76.114)" fill="#7eb8b6"/>
        <path id="Path_20350" data-name="Path 20350" d="M43.681,166.676l-5.612-15.191a1.653,1.653,0,0,1,.764-1.888l30.22-17.412a1.654,1.654,0,0,1,2.416.978l5.613,15.191a1.655,1.655,0,0,1-.765,1.888L46.1,167.655A1.655,1.655,0,0,1,43.681,166.676Z" transform="translate(44.951 -76.114)" fill="none" stroke="#000a3c" stroke-linecap="round" stroke-linejoin="round" stroke-width="1.2"/>
        <path id="Path_20351" data-name="Path 20351" d="M188.4,29.623,137.876.6,98.269,23.062l49.1,29.115,41.018-22.771" transform="translate(-91.812 -0.346)" fill="#fff"/>
        <path id="Path_20352" data-name="Path 20352" d="M188.4,29.623,137.876.6,98.269,23.062l49.1,29.115,41.018-22.771" transform="translate(-91.812 -0.346)" fill="none" stroke="#000a3c" stroke-linecap="round" stroke-linejoin="round" stroke-width="1.2"/>
        <path id="Path_20353" data-name="Path 20353" d="M127.139,262.968a15.016,15.016,0,0,0,6.814,11.8c3.775,2.18,6.846.43,6.858-3.908a15.017,15.017,0,0,0-6.813-11.8c-3.776-2.18-6.846-.43-6.858,3.906m6.82,9.5a10.617,10.617,0,0,1-4.818-8.344c.008-3.067,2.18-4.3,4.849-2.763a10.617,10.617,0,0,1,4.817,8.344c-.008,3.068-2.18,4.3-4.848,2.763" transform="translate(-56.439 -148.881)" fill="#7eb8b6"/>
        <path id="Path_20354" data-name="Path 20354" d="M127.139,262.968a15.016,15.016,0,0,0,6.814,11.8c3.775,2.18,6.846.43,6.858-3.908a15.017,15.017,0,0,0-6.813-11.8C130.222,256.882,127.151,258.632,127.139,262.968Zm6.82,9.5" transform="translate(-56.439 -148.881)" fill="none" stroke="#000a3c" stroke-linecap="round" stroke-linejoin="round" stroke-width="1.2"/>
      </g>
      <g id="Group_14657" data-name="Group 14657" transform="translate(0 0.3)">
        <path id="Path_20355" data-name="Path 20355" d="M107.84,116.44c60.015,34.644,60.313,34.811,60.623,34.966C168.631,151.7,108.123,116.6,107.84,116.44Z" transform="translate(966.798 195.06)" fill="#b9dbde" stroke="#fff" stroke-linecap="round" stroke-linejoin="round" stroke-width="1.2"/>
        <path id="Path_20357" data-name="Path 20357" d="M-351.738,2896.468a17.961,17.961,0,0,0,12.622,2.044" transform="translate(1487 -2550)" fill="none" stroke="#fff" stroke-width="1.2"/>
      </g>
    </g>
  </g>
</svg>
